# xmcd
#
# Track frame offsets:
#	150
#	19503
#	50306
#	84796
#	112858
#	143982
#	166689
#	189541
#	209315
#	230947
#	254934
#	281685
#	300579
#	334261
#	334895
#	335667
#	336515
#	337217
#	337871
#	340814
#	341813
#	342931
#	343231
#	343548
#	344959
#	347703
#	348087
#	349008
#	349576
#	350571
#	351519
#	352148
#	352917
#	353696
#	353996
#	354400
#	355110
#	355602
#	358322
#
# Disc length: 4803 seconds
#
# Revision: 0
# Processed by: cddbd v1.5.2PL0 Copyright (c) Steve Scherf et al.
# Submitted via: EZCDAudioConverter 5.3.0.1
#
DISCID=ab12c127
DTITLE=Pet Shop Boys - Love Comes Quickly
DYEAR=1900
DGENRE=
TTITLE0=Love Comes Quickly
TTITLE1=Love Comes Quickly (Dance Mix)
TTITLE2=Love Comes Quickly (Shep Pettibone Mastermix)
TTITLE3=Love Comes Quickly (Shep Pettibone Mastermix Edit)
TTITLE4=Love Comes Quickly (Dub Version)
TTITLE5=Love Comes Quickly (Blank and Jones Mix)
TTITLE6=Love Comes Quickly (Live - I get along B-Side)
TTITLE7=Love Comes Quickly (Fairlight)
TTITLE8=That's My Impression
TTITLE9=That's My Impression (Disco Mix)
TTITLE10=That's My Impression (Extended Mix)
TTITLE11=That's My Impression (Demo Version)
TTITLE12=Thats My Impression (Hitchcock Mix)
TTITLE13=41 Love comes quickly Drums #1
TTITLE14=43 Love comes quickly Drums #3
TTITLE15=42 Love comes quickly Drums #2
TTITLE16=45 Love comes quickly Synth Loop #1
TTITLE17=46 Love comes quickly Synth Loop #2
TTITLE18=44 Love comes quickly Cymbals
TTITLE19=48 Love comes quickly Synth Samples Echo #2
TTITLE20=47 Love comes quickly Synth Samples Echo #1
TTITLE21=51 Love comes quickly Clarinet
TTITLE22=50 Love comes quickly Shells
TTITLE23=52 Love comes quickly Synth Backing Track
TTITLE24=49 Love comes quickly Toms
TTITLE25=55 Love comes quickly Synth Loop
TTITLE26=53 Love comes quickly Synth Bass Track
TTITLE27=51 Love comes quickly Triangle
TTITLE28=56 Love comes quickly HA Vocal and Synth Loop
TTITLE29=54 Love comes quickly HA Vocal Loop
TTITLE30=57 Love comes quickly Trumpet #1
TTITLE31=58 Love comes quickly Trumpet #2
TTITLE32=59 Love comes quickly Trumpet #3
TTITLE33=61 Love comes quickly Reverse #2
TTITLE34=60 Love comes quickly Reverse #1
TTITLE35=63 Love comes quickly Trumpet #4
TTITLE36=62 Love comes quickly Drama
TTITLE37=65 Love comes quickly Backing Track
TTITLE38=64 Love comes quickly Claps and Drums
EXTD=
EXTT0=
EXTT1=
EXTT2=
EXTT3=
EXTT4=
EXTT5=
EXTT6=
EXTT7=
EXTT8=
EXTT9=
EXTT10=
EXTT11=
EXTT12=
EXTT13=
EXTT14=
EXTT15=
EXTT16=
EXTT17=
EXTT18=
EXTT19=
EXTT20=
EXTT21=
EXTT22=
EXTT23=
EXTT24=
EXTT25=
EXTT26=
EXTT27=
EXTT28=
EXTT29=
EXTT30=
EXTT31=
EXTT32=
EXTT33=
EXTT34=
EXTT35=
EXTT36=
EXTT37=
EXTT38=
PLAYORDER=
